<svg height="180" style="font-family:monospace;font-size:12px;" viewBox="-159.80002 0 788 180" width="803" xmlns="http://www.w3.org/2000/svg">
<style>path[fill="#00000030"]{fill:#ffffff30}svg{background:#0d1117}text{fill:#fff}</style>
<g>
<path d="M15,15 L15,22.5 L15,30 L15,30" fill="none" stroke="blue" stroke-width="1"/>
<circle cx="15" cy="15" fill="blue" r="4" stroke="blue" stroke-width="1">
<title>7d37188f12ee6d06537186c54fd92925b325ec3a</title>
</circle>
</g>
<text style="font-family:monospace;font-size:12px" x="45" y="17">
引数を受け取れるようにしたことに合わせてREADMEの文を修正
</text>
<g transform="translate(15, 15)">
<g>
<text x="-40.800003" y="3.5">
main
</text>
<path d="M-10,6.5 l6,-7 l-6,-7 h-39.800003 l6,7 l-6,7 z" fill="#00000030" stroke="#00000000"/>
</g>
<g>
<text x="-78.600006" y="3.5">
HEAD
</text>
<path d="M-47.800003,6.5 l6,-7 l-6,-7 h-39.800003 l6,7 l-6,7 z" fill="#00000030" stroke="#00000000"/>
</g>
<g>
<text x="-174.80002" y="3.5">
origin/main
</text>
<path d="M-93.600006,6.5 l6,-7 l-6,-7 h-90.200005 l6,7 l-6,7 z" fill="#00000030" stroke="#00000000"/>
</g>
</g>
<g>
<path d="M15,30 L15,37.5 L15,45 L15,45" fill="none" stroke="blue" stroke-width="1"/>
<circle cx="15" cy="30" fill="blue" r="4" stroke="blue" stroke-width="1">
<title>2821452b74336fc4527661ee40b04f1b7f7a2330</title>
</circle>
</g>
<text style="font-family:monospace;font-size:12px" x="45" y="32">
READMEの一部表記を修正
</text>
<g>
<path d="M15,45 L15,52.5 L15,60 L15,60" fill="none" stroke="blue" stroke-width="1"/>
<circle cx="15" cy="45" fill="blue" r="4" stroke="blue" stroke-width="1">
<title>8ff8173e02fcf05958733f20f7a043d31f8abac6</title>
</circle>
</g>
<text style="font-family:monospace;font-size:12px" x="45" y="47">
引数の説明を追加
</text>
<g>
<path d="M15,60 L15,67.5 L15,75 L15,75" fill="none" stroke="blue" stroke-width="1"/>
<circle cx="15" cy="60" fill="blue" r="4" stroke="blue" stroke-width="1">
<title>e91692299792e13dd99ef77c73807d29a06332cb</title>
</circle>
</g>
<text style="font-family:monospace;font-size:12px" x="45" y="62">
READMEにキャッシュについての注意書きを追加
</text>
<g>
<path d="M15,75 L15,82.5 L15,90 L15,90" fill="none" stroke="blue" stroke-width="1"/>
<circle cx="15" cy="75" fill="blue" r="4" stroke="blue" stroke-width="1">
<title>0f1df2b9caaacd18dca051b2d7e5f47b5a7c96d5</title>
</circle>
</g>
<text style="font-family:monospace;font-size:12px" x="45" y="77">
inputsで引数を受け取れるように
</text>
<g>
<path d="M15,90 L15,97.5 L15,105 L15,105" fill="none" stroke="blue" stroke-width="1"/>
<circle cx="15" cy="90" fill="blue" r="4" stroke="blue" stroke-width="1">
<title>37dfba72545363d1323e7070a769fe3e47b948d8</title>
</circle>
</g>
<text style="font-family:monospace;font-size:12px" x="45" y="92">
READMEのusesの構文を修正
</text>
<g>
<path d="M15,105 L15,112.5 L15,120 L15,120" fill="none" stroke="blue" stroke-width="1"/>
<circle cx="15" cy="105" fill="blue" r="4" stroke="blue" stroke-width="1">
<title>df7942d7c92eb689fe63058390397c8d3a66c78b</title>
</circle>
</g>
<text style="font-family:monospace;font-size:12px" x="45" y="107">
READMEを追加
</text>
<g>
<path d="M15,120 L15,127.5 L15,135 L15,135" fill="none" stroke="blue" stroke-width="1"/>
<circle cx="15" cy="120" fill="blue" r="4" stroke="blue" stroke-width="1">
<title>762ffd3e0f709983746a57f6cc72f7e495dc42a0</title>
</circle>
</g>
<text style="font-family:monospace;font-size:12px" x="45" y="122">
GitHub Actionsのワークフローを追加
</text>
<g>
<circle cx="15" cy="135" fill="blue" r="4" stroke="blue" stroke-width="1">
<title>8b152869efe7b8428f59dde15c847c9e8b59ea09</title>
</circle>
</g>
<text style="font-family:monospace;font-size:12px" x="45" y="137">
最初のコミット
</text>
<g>
<circle cx="30" cy="150" fill="gray" r="4" stroke="gray" stroke-width="1">
<title>50b6ff90d66ada27a57cbc57b727fe8d178def4d</title>
</circle>
</g>
<text style="font-family:monospace;font-size:12px" x="45" y="152">
Gitのグラフを更新
</text>
<g transform="translate(30, 150)">
<g>
<text x="-127.200005" y="3.5">
origin/git-graph
</text>
<path d="M-10,6.5 l6,-7 l-6,-7 h-126.200005 l6,7 l-6,7 z" fill="#00000030" stroke="#00000000"/>
</g>
</g>
</svg>
